<?xml version="1.0" encoding="iso-8859-1"?>
<!-- Generator: Adobe Illustrator 19.0.0, SVG Export Plug-In . SVG Version: 6.00 Build 0)  -->
<svg version="1.1" id="Capa_1" xmlns="http://www.w3.org/2000/svg" xmlns:xlink="http://www.w3.org/1999/xlink" x="0px" y="0px"
	 viewBox="0 0 512 512" style="enable-background:new 0 0 512 512;" xml:space="preserve">
<path style="fill:#CCCCCC;" d="M416.81,168.503c-48.43,0-87.7,39.174-87.7,87.497s39.27,87.497,87.7,87.497S504.5,304.324,504.5,256
	S465.24,168.503,416.81,168.503z M416.81,318.961c-34.79,0-63.09-28.248-63.09-62.961c0-34.714,28.3-62.952,63.09-62.952
	S479.9,221.286,479.9,256S451.6,318.961,416.81,318.961z"/>
<path style="fill:#A6A6A6;" d="M416.21,168.503c-4.175,0-8.28,0.298-12.3,0.861c42.607,5.968,83.11,42.479,83.11,86.637
	s-40.503,80.668-83.11,86.637c4.02,0.563,8.125,0.861,12.3,0.861c48.43,0,87.7-39.174,87.7-87.497S464.64,168.503,416.21,168.503z"
	/>
<path style="fill:#CCCCCC;" d="M309.6,168.503c-48.43,0-87.69,39.174-87.69,87.497s39.26,87.497,87.69,87.497
	s87.7-39.174,87.7-87.497S358.03,168.503,309.6,168.503z M309.6,318.961c-34.79,0-63.09-28.248-63.09-62.961
	c0-34.714,28.3-62.952,63.09-62.952s63.1,28.238,63.1,62.952S344.39,318.961,309.6,318.961z"/>
<path style="fill:#A6A6A6;" d="M309.6,168.503c-4.175,0-8.28,0.298-12.3,0.861c42.607,5.968,83.11,42.479,83.11,86.637
	s-40.503,80.668-83.11,86.637c4.02,0.563,8.125,0.861,12.3,0.861c48.43,0,87.7-39.174,87.7-87.497S358.03,168.503,309.6,168.503z"/>
<path style="fill:#CCCCCC;" d="M202.4,168.503c-48.43,0-87.7,39.174-87.7,87.497s39.27,87.497,87.7,87.497
	s87.69-39.174,87.69-87.497S250.83,168.503,202.4,168.503z M202.4,318.961c-34.79,0-63.09-28.248-63.09-62.961
	c0-34.714,28.3-62.952,63.09-62.952s63.09,28.238,63.09,62.952S237.19,318.961,202.4,318.961z"/>
<path style="fill:#A6A6A6;" d="M202.39,168.503c-4.175,0-8.28,0.298-12.3,0.861c42.607,5.968,83.11,42.479,83.11,86.637
	s-40.503,80.668-83.11,86.637c4.02,0.563,8.125,0.861,12.3,0.861c48.43,0,87.7-39.174,87.7-87.497S250.82,168.503,202.39,168.503z"
	/>
<path style="fill:#CCCCCC;" d="M95.19,168.503C46.76,168.503,7.5,207.676,7.5,256s39.26,87.497,87.69,87.497
	s87.7-39.174,87.7-87.497S143.62,168.503,95.19,168.503z M95.19,318.961c-34.79,0-63.09-28.248-63.09-62.961
	c0-34.714,28.3-62.952,63.09-62.952s63.1,28.238,63.1,62.952C158.29,290.714,129.98,318.961,95.19,318.961z"/>
<path style="fill:#A6A6A6;" d="M95.19,168.503c-4.175,0-8.28,0.298-12.3,0.861C125.497,175.332,166,211.842,166,256
	s-40.503,80.668-83.11,86.637c4.02,0.563,8.125,0.861,12.3,0.861c48.43,0,87.7-39.174,87.7-87.497S143.62,168.503,95.19,168.503z"/>
<path d="M292.108,334.091c-11.529-2.56-22.135-7.532-31.525-14.779c-2.7-2.083-6.465-2.083-9.165,0
	C237.271,330.229,220.321,336,202.397,336s-34.874-5.771-49.02-16.688c-2.7-2.083-6.465-2.083-9.165,0
	C130.066,330.229,113.116,336,95.192,336C50.974,336,15,300.112,15,256s35.974-80,80.192-80c17.923,0,34.874,5.771,49.02,16.688
	c2.7,2.083,6.465,2.083,9.165,0C167.523,181.771,184.474,176,202.397,176s34.874,5.771,49.02,16.688c2.7,2.083,6.465,2.083,9.165,0
	C274.729,181.771,291.679,176,309.603,176s34.874,5.771,49.02,16.688c2.7,2.083,6.465,2.083,9.165,0
	C381.934,181.771,398.884,176,416.808,176c9.908,0,19.576,1.779,28.735,5.287c3.87,1.481,8.205-0.453,9.687-4.321
	c1.481-3.868-0.453-8.205-4.321-9.687C440.03,163.112,428.557,161,416.808,161c-19.368,0-37.784,5.682-53.603,16.484
	C347.386,166.682,328.97,161,309.603,161s-37.784,5.682-53.603,16.484C240.181,166.682,221.765,161,202.397,161
	s-37.783,5.682-53.603,16.484C132.976,166.682,114.56,161,95.192,161C42.703,161,0,203.617,0,256s42.703,95,95.192,95
	c19.368,0,37.784-5.682,53.603-16.484C164.614,345.318,183.03,351,202.397,351s37.784-5.682,53.603-16.484
	c9.978,6.813,21.006,11.588,32.857,14.219c4.042,0.898,8.049-1.653,8.947-5.696C298.702,338.995,296.151,334.989,292.108,334.091z"
	/>
<path d="M376.209,313.591c11.954,8.417,25.993,12.867,40.601,12.867c38.925,0,70.594-31.608,70.594-70.459
	c0-38.849-31.668-70.455-70.594-70.455c-14.607,0-28.646,4.449-40.6,12.866c-1.645,1.158-2.755,2.928-3.083,4.913
	c-0.327,1.984,0.157,4.017,1.343,5.642c10.026,13.734,15.325,29.999,15.325,47.036s-5.299,33.302-15.326,47.037
	c-1.186,1.625-1.669,3.657-1.343,5.642C373.454,310.663,374.564,312.433,376.209,313.591z M391.084,206.861
	c7.912-4.15,16.68-6.317,25.725-6.317c30.654,0,55.594,24.877,55.594,55.455c0,30.58-24.939,55.459-55.594,55.459
	c-9.045,0-17.814-2.167-25.726-6.318c8.994-14.792,13.711-31.623,13.711-49.14C404.795,238.483,400.078,221.653,391.084,206.861z"/>
<path d="M369.571,218.876c-1.37-2.197-3.775-3.532-6.364-3.532s-4.995,1.335-6.364,3.532c-6.952,11.149-10.627,23.986-10.627,37.123
	s3.675,25.975,10.627,37.125c1.37,2.197,3.775,3.532,6.364,3.532s4.995-1.335,6.364-3.532c6.952-11.151,10.627-23.989,10.627-37.125
	C380.198,242.864,376.523,230.027,369.571,218.876z M363.207,270.693c-1.316-4.761-1.991-9.7-1.991-14.694
	c0-4.994,0.675-9.932,1.991-14.692c1.315,4.76,1.991,9.699,1.991,14.692C365.198,260.993,364.522,265.932,363.207,270.693z"/>
<path d="M161.798,313.591c11.954,8.417,25.994,12.867,40.601,12.867c14.606,0,28.645-4.449,40.598-12.865
	c1.645-1.158,2.755-2.928,3.082-4.913c0.328-1.984-0.156-4.018-1.342-5.642c-10.027-13.735-15.327-30-15.327-47.039
	c0-17.038,5.3-33.303,15.326-47.038c1.186-1.625,1.669-3.658,1.342-5.643c-0.327-1.984-1.438-3.754-3.083-4.913
	c-11.953-8.415-25.991-12.863-40.597-12.863c-14.607,0-28.646,4.449-40.6,12.866c-1.645,1.158-2.755,2.928-3.083,4.913
	c-0.327,1.984,0.157,4.018,1.343,5.642c10.026,13.733,15.325,29.998,15.325,47.036c0,17.037-5.299,33.302-15.326,47.037
	c-1.186,1.625-1.669,3.657-1.343,5.642C159.043,310.663,160.154,312.433,161.798,313.591z M176.675,206.861
	c7.911-4.15,16.68-6.317,25.725-6.317c9.043,0,17.811,2.167,25.722,6.316c-8.994,14.792-13.711,31.623-13.711,49.14
	c0,17.518,4.717,34.349,13.712,49.142c-7.911,4.149-16.679,6.316-25.723,6.316c-9.045,0-17.814-2.167-25.726-6.318
	c8.994-14.792,13.711-31.623,13.711-49.14S185.668,221.652,176.675,206.861z"/>
<path d="M117.964,231.125c3.854,1.511,8.208-0.388,9.721-4.244c2.491-6.353,5.804-12.381,9.847-17.919
	c1.186-1.625,1.669-3.658,1.342-5.642c-0.327-1.985-1.438-3.755-3.083-4.913c-11.953-8.416-25.991-12.864-40.597-12.864
	c-38.925,0-70.594,31.606-70.594,70.455c0,38.851,31.668,70.459,70.594,70.459c14.606,0,28.645-4.449,40.598-12.865
	c1.645-1.158,2.755-2.928,3.082-4.913c0.328-1.984-0.156-4.018-1.342-5.642c-10.027-13.735-15.327-30-15.327-47.039
	c0-4.142-3.358-7.5-7.5-7.5s-7.5,3.358-7.5,7.5c0,17.518,4.717,34.349,13.712,49.142c-7.911,4.149-16.679,6.316-25.723,6.316
	c-30.654,0-55.594-24.879-55.594-55.459c0-30.578,24.939-55.455,55.594-55.455c9.045,0,17.814,2.167,25.726,6.318
	c-2.813,4.636-5.224,9.503-7.2,14.543C112.208,225.261,114.108,229.613,117.964,231.125z"/>
<path d="M353.285,308.681c0.327-1.984-0.157-4.018-1.343-5.642c-10.027-13.735-15.327-30-15.327-47.039s5.3-33.304,15.326-47.038
	c1.186-1.625,1.669-3.658,1.342-5.642c-0.327-1.985-1.438-3.755-3.083-4.913c-11.953-8.415-25.991-12.863-40.597-12.863
	c-14.607,0-28.646,4.449-40.6,12.866c-1.645,1.158-2.755,2.928-3.083,4.913c-0.327,1.984,0.157,4.018,1.343,5.642
	c10.026,13.733,15.325,29.998,15.325,47.036c0,17.037-5.299,33.302-15.326,47.037c-1.186,1.625-1.669,3.657-1.343,5.642
	c0.327,1.984,1.438,3.754,3.083,4.913c11.954,8.417,25.993,12.867,40.601,12.867c14.605,0,28.644-4.448,40.598-12.865
	C351.847,312.436,352.958,310.666,353.285,308.681z M309.604,311.458c-9.045,0-17.814-2.167-25.726-6.318
	c8.994-14.792,13.711-31.623,13.711-49.14s-4.717-34.348-13.71-49.139c7.911-4.15,16.68-6.317,25.725-6.317
	c9.043,0,17.811,2.167,25.722,6.316c-8.994,14.792-13.711,31.623-13.711,49.14s4.717,34.349,13.712,49.141
	C327.416,309.291,318.648,311.458,309.604,311.458z"/>
<path d="M480.908,185.766c-3.066-2.787-7.809-2.563-10.595,0.502c-2.787,3.064-2.562,7.808,0.502,10.594
	C487.456,211.997,497,233.551,497,256c0,44.112-35.974,80-80.192,80c-17.923,0-34.874-5.771-49.02-16.688
	c-2.7-2.083-6.465-2.083-9.165,0c-11.425,8.818-25.018,14.388-39.309,16.108c-4.112,0.495-7.045,4.23-6.55,8.343
	c0.495,4.112,4.229,7.044,8.343,6.55c15.1-1.818,29.54-7.251,42.094-15.799C379.021,345.318,397.437,351,416.808,351
	C469.297,351,512,308.383,512,256C512,229.335,500.667,203.736,480.908,185.766z"/>
<path d="M148.797,296.656c2.589,0,4.995-1.335,6.364-3.532c6.952-11.15,10.627-23.988,10.627-37.125
	c0-13.136-3.675-25.973-10.627-37.123c-1.37-2.197-3.775-3.532-6.364-3.532s-4.995,1.335-6.364,3.532
	c-6.952,11.149-10.627,23.986-10.627,37.123s3.675,25.975,10.627,37.125C143.802,295.321,146.208,296.656,148.797,296.656z
	 M148.797,241.307c1.315,4.76,1.991,9.699,1.991,14.692c0,4.994-0.675,9.933-1.991,14.694c-1.316-4.761-1.991-9.7-1.991-14.694
	S147.481,246.067,148.797,241.307z"/>
<path d="M256.002,296.656c2.589,0,4.995-1.335,6.364-3.532c6.952-11.15,10.627-23.988,10.627-37.125
	c0-13.136-3.675-25.973-10.627-37.123c-1.37-2.197-3.775-3.532-6.364-3.532s-4.995,1.335-6.364,3.532
	c-6.952,11.149-10.627,23.986-10.627,37.123s3.675,25.975,10.627,37.125C251.007,295.321,253.413,296.656,256.002,296.656z
	 M256.002,241.307c1.315,4.76,1.991,9.699,1.991,14.692c0,4.994-0.675,9.933-1.991,14.694c-1.316-4.761-1.991-9.7-1.991-14.694
	C254.011,251.005,254.687,246.067,256.002,241.307z"/>
<g>
</g>
<g>
</g>
<g>
</g>
<g>
</g>
<g>
</g>
<g>
</g>
<g>
</g>
<g>
</g>
<g>
</g>
<g>
</g>
<g>
</g>
<g>
</g>
<g>
</g>
<g>
</g>
<g>
</g>
</svg>
