<svg id="Layer_1" enable-background="new 0 0 512 512" height="512" viewBox="0 0 512 512" width="512" xmlns="http://www.w3.org/2000/svg"><g fill="#e8f3ff"><circle cx="256" cy="224" r="64"/><circle cx="432" cy="224" r="64"/><circle cx="344" cy="288" r="64"/><circle cx="168" cy="288" r="64"/><circle cx="80" cy="224" r="64"/></g><path d="m432 144c-38.839 0-71.288 27.825-78.495 64.584-6.514-.775-12.445-.781-19.01 0-7.207-36.759-39.656-64.584-78.495-64.584s-71.288 27.825-78.495 64.584c-6.514-.775-12.445-.781-19.01 0-7.207-36.759-39.656-64.584-78.495-64.584-44.112 0-80 35.888-80 80 0 47.447 41.472 85.131 89.505 79.416 7.207 36.759 39.656 64.584 78.495 64.584s71.288-27.825 78.495-64.584c6.514.775 12.445.781 19.01 0 7.207 36.759 39.656 64.584 78.495 64.584s71.288-27.825 78.495-64.584c48.057 5.718 89.505-31.991 89.505-79.416 0-44.112-35.888-80-80-80zm-400 80c0-26.467 21.533-48 48-48 24.751 0 45.182 18.832 47.729 42.919-19.028 11.136-33.065 29.893-37.889 52.063-29.923 6.26-57.84-16.71-57.84-46.982zm136 112c-24.751 0-45.182-18.832-47.729-42.919 19.028-11.136 33.065-29.893 37.889-52.063 6.488-1.357 13.187-1.359 19.68 0 4.823 22.17 18.86 40.927 37.889 52.063-2.547 24.087-22.978 42.919-47.729 42.919zm78.16-65.018c-4.823-22.17-18.86-40.927-37.889-52.063 2.547-24.087 22.978-42.919 47.729-42.919s45.182 18.832 47.729 42.919c-19.028 11.136-33.065 29.893-37.889 52.063-6.488 1.357-13.187 1.358-19.68 0zm97.84 65.018c-24.751 0-45.182-18.832-47.729-42.919 19.028-11.136 33.065-29.893 37.889-52.063 6.488-1.357 13.187-1.359 19.68 0 4.823 22.17 18.86 40.927 37.889 52.063-2.547 24.087-22.978 42.919-47.729 42.919zm78.16-65.018c-4.823-22.17-18.86-40.927-37.889-52.063 2.547-24.087 22.978-42.919 47.729-42.919 26.467 0 48 21.533 48 48 0 30.329-27.971 53.231-57.84 46.982z" fill="#2e58ff"/></svg>